<svg width="44" height="36" viewBox="0 0 44 36" fill="none" xmlns="http://www.w3.org/2000/svg">
<path d="M39 7H30V5C30 2.243 27.757 0 25 0H19C16.243 0 14 2.243 14 5V7H5C2.243 7 0 9.243 0 12V31C0 33.757 2.243 36 5 36H39C41.757 36 44 33.757 44 31V12C44 9.243 41.757 7 39 7ZM16 5C16 3.346 17.346 2 19 2H25C26.654 2 28 3.346 28 5V7H16V5ZM42 31C42 32.654 40.654 34 39 34H5C3.346 34 2 32.654 2 31V12C2 10.346 3.346 9 5 9H39C40.654 9 42 10.346 42 12V31Z" fill="#3FA9F5"/>
<path d="M14 23H12V31H14V23Z" fill="#3FA9F5"/>
<path d="M20 20H18V31H20V20Z" fill="#3FA9F5"/>
<path d="M26 17H24V31H26V17Z" fill="#3FA9F5"/>
<path d="M32 14H30V31H32V14Z" fill="#3FA9F5"/>
</svg>
